<?xml version="1.0" encoding="UTF-8"?>
<svg id="Layer_2" data-name="Layer 2" xmlns="http://www.w3.org/2000/svg" viewBox="0 0 258.13 294.88">
  <defs>
    <style>
      .cls-1 {
        fill: #ed1b33;
      }

      .cls-2 {
        fill: #0b0b0b;
      }
    </style>
  </defs>
  <g>
    <rect class="cls-2" x="89.12" y="0" width="9.64" height="50.1" rx="2.38" ry="2.38"/>
    <rect class="cls-2" x="79.08" y="9.16" width="7.49" height="31.86" rx="1.67" ry="1.67"/>
    <rect class="cls-2" x="97.08" y="14.65" width="6.29" height="20.94" rx="1.67" ry="1.67" transform="translate(125.35 -75.1) rotate(90)"/>
    <path class="cls-2" d="M109.45,28.23h-3.49c-.77,0-1.4-.63-1.4-1.4l6.72-23.96c0-.77,.63-1.4,1.4-1.4h3.49c.77,0,1.4,.63,1.4,1.4l-6.72,23.96c0,.77-.63,1.4-1.4,1.4Z"/>
    <rect class="cls-2" x="76.04" y="20.03" width="5.29" height="10.46" rx="1.09" ry="1.09"/>
    <path class="cls-2" d="M119.48,28.23h3.49c.77,0,1.4-.63,1.4-1.4l-6.72-23.96c0-.77-.63-1.4-1.4-1.4h-3.49c-.77,0-1.4,.63-1.4,1.4l6.72,23.96c0,.77,.63,1.4,1.4,1.4Z"/>
    <rect class="cls-2" x="143.85" y="0" width="9.64" height="50.1" rx="2.38" ry="2.38" transform="translate(297.34 50.1) rotate(180)"/>
    <rect class="cls-2" x="156.03" y="9.16" width="7.49" height="31.86" rx="1.67" ry="1.67" transform="translate(319.56 50.18) rotate(180)"/>
    <rect class="cls-2" x="139.23" y="14.65" width="6.29" height="20.94" rx="1.67" ry="1.67" transform="translate(167.5 -117.26) rotate(90)"/>
    <path class="cls-2" d="M133.16,28.23h3.49c.77,0,1.4-.63,1.4-1.4l-6.72-23.96c0-.77-.63-1.4-1.4-1.4h-3.49c-.77,0-1.4,.63-1.4,1.4l6.72,23.96c0,.77,.63,1.4,1.4,1.4Z"/>
    <rect class="cls-2" x="161.28" y="20.03" width="5.29" height="10.46" rx="1.09" ry="1.09" transform="translate(327.85 50.51) rotate(-180)"/>
    <path class="cls-2" d="M123.12,28.23h-3.49c-.77,0-1.4-.63-1.4-1.4l6.72-23.96c0-.77,.63-1.4,1.4-1.4h3.49c.77,0,1.4,.63,1.4,1.4l-6.72,23.96c0,.77-.63,1.4-1.4,1.4Z"/>
  </g>
  <path class="cls-1" d="M225.54,192.57v21.87c0,2.26-1.85,4.12-4.12,4.12h-10.23c-2.26,0-4.12-1.85-4.12-4.12v-70.33c0-2.26,1.85-4.12,4.12-4.12h10.23c2.26,0,4.12,1.85,4.12,4.12v22.68h10.94c-6.18-58.07-55.32-103.31-115.03-103.31S12.59,108.72,6.41,166.79h10.94v-22.68c0-2.26,1.85-4.12,4.12-4.12h10.23c2.26,0,4.12,1.85,4.12,4.12v70.33c0,2.26-1.85,4.12-4.12,4.12h-10.23c-2.26,0-4.12-1.85-4.12-4.12v-21.87H6.54c6.64,57.59,55.54,102.31,114.91,102.31s108.26-44.72,114.91-102.31h-10.81Zm-24.75,42.49c0,3.23-2.65,5.88-5.88,5.88h-12.01c-3.23,0-5.88-2.64-5.88-5.88v-47.95h-25.32c-.29,0-.58-.03-.85-.09h-.19c-1.9,0-3.46-1.56-3.46-3.46l-8.92-31.79-8.92,31.79c0,1.9-1.56,3.46-3.46,3.46h-8.98c-1.9,0-3.46-1.56-3.46-3.46l-8.92-31.79-8.92,31.79c0,1.9-1.56,3.46-3.46,3.46h-.19c-.27,.06-.56,.09-.85,.09h-25.32v47.95c0,3.23-2.65,5.88-5.88,5.88h-12.01c-3.23,0-5.88-2.64-5.88-5.88V123.3c0-3.23,2.65-5.88,5.88-5.88h12.01c3.23,0,5.88,2.65,5.88,5.88v48.31h17.65l13.21-47.1c0-1.9,1.56-3.46,3.46-3.46h8.8c1.9,0,3.46,1.56,3.46,3.46l9,32.1,9-32.1c0-1.9,1.56-3.46,3.46-3.46h8.8c1.9,0,3.46,1.56,3.46,3.46l13.21,47.1h17.65v-48.31c0-3.23,2.65-5.88,5.88-5.88h12.01c3.23,0,5.88,2.65,5.88,5.88v111.76Z"/>
</svg>